<?xml version="1.0" encoding="UTF-8" standalone="no"?>
<!-- Generated by SVGMaker - https://svgmaker.io -->

<!-- Prompt: Create a sleek, modern SVG logo for "Expert Alliance AI" featuring interconnected geometric shapes or nodes symbolizing collaboration and AI connectivity, using a professional color palette of blues, whites, and silvers. Incorporate clean lines and a minimalist, vector-friendly design that conveys innovation and expertise, with balanced composition suitable for branding and digital use. -->

<!-- Quality: manual -->

<!-- Type: generate -->

<!-- Created: 2026-01-06T20:57:46.187Z -->

<svg
   version="1.1"
   style="display: block;"
   viewBox="0 0 2048 2048"
   width="1024"
   height="1024"
   preserveAspectRatio="none"
   id="svg73"
   sodipodi:docname="ExpertAllianceAI-icon.svg"
   inkscape:version="1.4.3 (0d15f75, 2025-12-25)"
   xmlns:inkscape="http://www.inkscape.org/namespaces/inkscape"
   xmlns:sodipodi="http://sodipodi.sourceforge.net/DTD/sodipodi-0.dtd"
   xmlns="http://www.w3.org/2000/svg"
   xmlns:svg="http://www.w3.org/2000/svg">
  <sodipodi:namedview
     id="namedview73"
     pagecolor="#ffffff"
     bordercolor="#000000"
     borderopacity="0.25"
     inkscape:showpageshadow="2"
     inkscape:pageopacity="0.0"
     inkscape:pagecheckerboard="0"
     inkscape:deskcolor="#d1d1d1"
     inkscape:zoom="0.54503666"
     inkscape:cx="613.72019"
     inkscape:cy="578.86015"
     inkscape:window-width="1920"
     inkscape:window-height="991"
     inkscape:window-x="-9"
     inkscape:window-y="-9"
     inkscape:window-maximized="1"
     inkscape:current-layer="svg73" />
  <defs
     id="defs32">
    <linearGradient
       id="Gradient1"
       gradientUnits="userSpaceOnUse"
       x1="524.893"
       y1="738.53"
       x2="540.011"
       y2="684.524"
       gradientTransform="matrix(3.0089814,0,0,2.9774696,-588.08346,-1632.8049)">
      <stop
         class="stop0"
         offset="0"
         stop-opacity="1"
         stop-color="rgb(109,135,163)"
         id="stop1" />
      <stop
         class="stop1"
         offset="1"
         stop-opacity="1"
         stop-color="rgb(139,159,179)"
         id="stop2" />
    </linearGradient>
    <linearGradient
       id="Gradient2"
       gradientUnits="userSpaceOnUse"
       x1="344.186"
       y1="966.226"
       x2="304.122"
       y2="1015.4"
       gradientTransform="matrix(3.0089814,0,0,2.9774696,-588.08346,-1632.8049)">
      <stop
         class="stop0"
         offset="0"
         stop-opacity="1"
         stop-color="rgb(96,122,150)"
         id="stop3" />
      <stop
         class="stop1"
         offset="1"
         stop-opacity="1"
         stop-color="rgb(130,149,172)"
         id="stop4" />
    </linearGradient>
    <linearGradient
       id="Gradient3"
       gradientUnits="userSpaceOnUse"
       x1="439.139"
       y1="815.106"
       x2="479.642"
       y2="718.36"
       gradientTransform="matrix(3.0089814,0,0,2.9774696,-588.08346,-1632.8049)">
      <stop
         class="stop0"
         offset="0"
         stop-opacity="1"
         stop-color="rgb(45,89,138)"
         id="stop5" />
      <stop
         class="stop1"
         offset="1"
         stop-opacity="1"
         stop-color="rgb(108,133,163)"
         id="stop6" />
    </linearGradient>
    <linearGradient
       id="Gradient4"
       gradientUnits="userSpaceOnUse"
       x1="1103.93"
       y1="1312.53"
       x2="1046.77"
       y2="1183.05">
      <stop
         class="stop0"
         offset="0"
         stop-opacity="1"
         stop-color="rgb(85,108,133)"
         id="stop7" />
      <stop
         class="stop1"
         offset="1"
         stop-opacity="1"
         stop-color="rgb(136,154,178)"
         id="stop8" />
    </linearGradient>
    <linearGradient
       id="Gradient5"
       gradientUnits="userSpaceOnUse"
       x1="963.015"
       y1="1320.37"
       x2="962.258"
       y2="1180.05">
      <stop
         class="stop0"
         offset="0"
         stop-opacity="1"
         stop-color="rgb(84,104,131)"
         id="stop9" />
      <stop
         class="stop1"
         offset="1"
         stop-opacity="1"
         stop-color="rgb(141,161,180)"
         id="stop10" />
    </linearGradient>
    <linearGradient
       id="Gradient6"
       gradientUnits="userSpaceOnUse"
       x1="991.049"
       y1="894.627"
       x2="935.032"
       y2="706.647">
      <stop
         class="stop0"
         offset="0"
         stop-opacity="1"
         stop-color="rgb(1,61,131)"
         id="stop11" />
      <stop
         class="stop1"
         offset="1"
         stop-opacity="1"
         stop-color="rgb(1,92,181)"
         id="stop12" />
    </linearGradient>
    <linearGradient
       id="Gradient7"
       gradientUnits="userSpaceOnUse"
       x1="1238.78"
       y1="921.045"
       x2="1228.54"
       y2="759.853">
      <stop
         class="stop0"
         offset="0"
         stop-opacity="1"
         stop-color="rgb(2,60,131)"
         id="stop13" />
      <stop
         class="stop1"
         offset="1"
         stop-opacity="1"
         stop-color="rgb(0,87,175)"
         id="stop14" />
    </linearGradient>
    <linearGradient
       id="Gradient8"
       gradientUnits="userSpaceOnUse"
       x1="645.427"
       y1="664.416"
       x2="611.768"
       y2="605.132"
       gradientTransform="matrix(3.0089814,0,0,2.9774696,-588.08346,-1632.8049)">
      <stop
         class="stop0"
         offset="0"
         stop-opacity="1"
         stop-color="rgb(153,155,159)"
         id="stop15" />
      <stop
         class="stop1"
         offset="1"
         stop-opacity="1"
         stop-color="rgb(197,197,200)"
         id="stop16" />
    </linearGradient>
    <linearGradient
       id="Gradient9"
       gradientUnits="userSpaceOnUse"
       x1="669.825"
       y1="730.795"
       x2="640.584"
       y2="650.82"
       gradientTransform="matrix(3.0089814,0,0,2.9774696,-588.08346,-1632.8049)">
      <stop
         class="stop0"
         offset="0"
         stop-opacity="1"
         stop-color="rgb(107,112,122)"
         id="stop17" />
      <stop
         class="stop1"
         offset="1"
         stop-opacity="1"
         stop-color="rgb(172,173,177)"
         id="stop18" />
    </linearGradient>
    <linearGradient
       id="Gradient10"
       gradientUnits="userSpaceOnUse"
       x1="651.582"
       y1="669.997"
       x2="617.059"
       y2="614.476"
       gradientTransform="matrix(3.0089814,0,0,2.9774696,-588.08346,-1632.8049)">
      <stop
         class="stop0"
         offset="0"
         stop-opacity="1"
         stop-color="rgb(200,200,201)"
         id="stop19" />
      <stop
         class="stop1"
         offset="1"
         stop-opacity="1"
         stop-color="rgb(255,255,255)"
         id="stop20" />
    </linearGradient>
    <linearGradient
       id="Gradient11"
       gradientUnits="userSpaceOnUse"
       x1="326.052"
       y1="1122.51"
       x2="287.299"
       y2="1066.56"
       gradientTransform="matrix(3.0089814,0,0,2.9774696,-588.08346,-1632.8049)">
      <stop
         class="stop0"
         offset="0"
         stop-opacity="1"
         stop-color="rgb(198,197,198)"
         id="stop21" />
      <stop
         class="stop1"
         offset="1"
         stop-opacity="1"
         stop-color="rgb(255,255,255)"
         id="stop22" />
    </linearGradient>
    <linearGradient
       id="Gradient12"
       gradientUnits="userSpaceOnUse"
       x1="347.254"
       y1="1173.36"
       x2="287.77"
       y2="1049.07"
       gradientTransform="matrix(3.0089814,0,0,2.9774696,-588.08346,-1632.8049)">
      <stop
         class="stop0"
         offset="0"
         stop-opacity="1"
         stop-color="rgb(128,131,137)"
         id="stop23" />
      <stop
         class="stop1"
         offset="1"
         stop-opacity="1"
         stop-color="rgb(197,198,201)"
         id="stop24" />
    </linearGradient>
    <linearGradient
       id="Gradient13"
       gradientUnits="userSpaceOnUse"
       x1="315.95"
       y1="842.604"
       x2="290.823"
       y2="791.413"
       gradientTransform="matrix(3.0089814,0,0,2.9774696,-588.08346,-1632.8049)">
      <stop
         class="stop0"
         offset="0"
         stop-opacity="1"
         stop-color="rgb(13,96,172)"
         id="stop25" />
      <stop
         class="stop1"
         offset="1"
         stop-opacity="1"
         stop-color="rgb(58,163,222)"
         id="stop26" />
    </linearGradient>
    <linearGradient
       id="Gradient14"
       gradientUnits="userSpaceOnUse"
       x1="349.76"
       y1="923.658"
       x2="283.416"
       y2="776.06"
       gradientTransform="matrix(3.0089814,0,0,2.9774696,-588.08346,-1632.8049)">
      <stop
         class="stop0"
         offset="0"
         stop-opacity="1"
         stop-color="rgb(0,47,110)"
         id="stop27" />
      <stop
         class="stop1"
         offset="1"
         stop-opacity="1"
         stop-color="rgb(3,93,177)"
         id="stop28" />
    </linearGradient>
    <linearGradient
       id="Gradient15"
       gradientUnits="userSpaceOnUse"
       x1="762.688"
       y1="1005.7"
       x2="730.304"
       y2="948.604"
       gradientTransform="matrix(3.0089814,0,0,2.9774696,-588.08346,-1632.8049)">
      <stop
         class="stop0"
         offset="0"
         stop-opacity="1"
         stop-color="rgb(11,94,171)"
         id="stop29" />
      <stop
         class="stop1"
         offset="1"
         stop-opacity="1"
         stop-color="rgb(60,163,223)"
         id="stop30" />
    </linearGradient>
    <linearGradient
       id="Gradient16"
       gradientUnits="userSpaceOnUse"
       x1="658.395"
       y1="1138.26"
       x2="606.64"
       y2="967"
       gradientTransform="matrix(3.0089814,0,0,2.9774696,-588.08346,-1632.8049)">
      <stop
         class="stop0"
         offset="0"
         stop-opacity="1"
         stop-color="rgb(0,46,111)"
         id="stop31" />
      <stop
         class="stop1"
         offset="1"
         stop-opacity="1"
         stop-color="rgb(3,96,183)"
         id="stop32" />
    </linearGradient>
  </defs>
  <path
     fill="url(#Gradient16)"
     d="m 1661.3468,1118.883 c 36.3545,-1.6497 66.6128,-3.6326 102.2661,4.4095 70.3922,16.4059 131.339,59.7638 169.4749,120.5666 39.6012,64.1735 51.4205,141.4179 32.7979,214.3065 -17.3106,67.4398 -59.5147,127.0784 -120.5697,162.4507 -62.253,36.2359 -136.6229,46.1805 -206.3592,27.5715 -88.4731,-24.0282 -135.0882,-73.6032 -178.7695,-149.3201 -41.2532,17.7158 -106.9,36.9206 -151.0118,51.123 -89.7368,28.5837 -179.3021,57.6736 -268.6989,87.2995 l -354.65062,115.8534 c -4.08619,-27.7799 -6.58968,-70.7745 -7.78726,-99.0308 78.69691,-20.1871 189.22281,-59.2218 268.58471,-84.8875 l 487.48507,-158.8778 c -4.5046,-152.6728 74.1232,-261.0528 227.2383,-291.4645 z"
     id="path32"
     style="fill:url(#Gradient16);stroke-width:2.99318" />
  <path
     fill="url(#Gradient15)"
     d="m 1640.5426,1162.8869 c 83.4331,-20.4909 172.8239,5.9282 216.8994,82.8035 0.7614,14.0417 2.8585,25.8414 -2.0671,38.7249 -8.2477,8.3905 -309.3654,110.5087 -339.8765,118.5479 -31.814,-26.0231 -16.8744,-119.7151 6.0781,-151.4608 28.2845,-48.0623 66.276,-72.7604 118.9661,-88.6155 z"
     id="path33"
     style="fill:url(#Gradient15);stroke-width:2.99318" />
  <path
     fill="#40a9e1"
     d="m 1521.5765,1251.5024 c 28.2845,-48.0623 66.276,-72.7604 118.9661,-88.6155 l 19.0197,2.1111 c -13.4321,29.465 -96.3897,88.8 -131.5315,89.7945 z"
     id="path34"
     style="stroke-width:2.99318" />
  <path
     fill="url(#Gradient14)"
     d="M 344.45102,652.78989 C 482.15706,640.83537 603.416,742.00088 614.77791,878.32727 626.13983,1014.6507 523.27177,1134.1096 385.4484,1144.6409 248.63604,1155.0979 128.9929,1054.2183 117.71225,918.8952 106.43157,783.57231 207.756,664.65512 344.45102,652.78989 Z"
     id="path35"
     style="fill:url(#Gradient14);stroke-width:2.99318" />
  <path
     fill="url(#Gradient13)"
     d="m 329.88455,693.70331 c 87.21533,-5.05575 163.12892,22.38169 189.16262,114.15917 -91.37675,42.30084 -231.05064,82.70516 -327.38921,115.49299 -25.05879,-53.93974 -21.44501,-125.3812 26.16009,-166.16355 31.13091,-35.72074 66.79637,-52.29631 112.0665,-63.48861 z"
     id="path36"
     style="fill:url(#Gradient13);stroke-width:2.99318" />
  <path
     fill="#40a9e1"
     d="m 217.81805,757.19192 c 31.13091,-35.72074 66.79637,-52.29631 112.0665,-63.48861 l 12.22249,4.75501 c -3.20759,4.33818 -53.06942,30.05156 -62.29495,40.47566 -7.4051,8.36973 -49.66925,22.35189 -61.99404,18.25794 z"
     id="path37"
     style="stroke-width:2.99318" />
  <path
     fill="url(#Gradient12)"
     d="m 219.72875,1870.4855 c -83.73092,-74.7642 -102.36556,-197.674 -44.49081,-293.489 57.87475,-95.7852 176.11267,-137.7378 282.31768,-100.1621 106.202,37.5757 170.74766,144.1988 154.11402,254.6033 -12.83633,85.1854 -71.98086,156.4959 -153.92143,185.5559 -81.9406,29.0899 -173.39858,11.2251 -238.01946,-46.5081 z"
     id="path38"
     style="fill:url(#Gradient12);stroke-width:2.99318" />
  <path
     fill="#71757d"
     d="m 219.72875,1870.4855 c 15.45713,-0.5954 42.83586,27.3929 52.72036,25.9636 68.87558,-10.2425 153.01875,-14.9469 212.95464,-52.6119 36.7547,-23.1051 74.43317,-55.0237 111.85588,-78.5457 2.29885,-1.4589 7.94972,-26.7972 8.91259,-30.8762 l 5.49742,-2.9776 c -12.83633,85.1854 -71.98086,156.4959 -153.92143,185.5559 -81.9406,29.0899 -173.39858,11.2251 -238.01946,-46.5081 z"
     id="path39"
     style="stroke-width:2.99318" />
  <path
     fill="url(#Gradient11)"
     d="m 367.05448,1500.6242 c 90.62451,0.2978 143.6217,25.2193 179.17282,112.1912 -112.18386,68.5712 -222.41789,105.313 -339.70498,160.0092 -28.43487,-55.9764 -41.88802,-113.3522 -7.38403,-171.4128 33.37262,-65.3555 96.63344,-95.6365 167.91619,-100.7876 z"
     id="path40"
     style="fill:url(#Gradient11);stroke-width:2.99318" />
  <path
     fill="#fefefe"
     d="m 199.13829,1601.4118 c 33.37262,-65.3555 96.63344,-95.6365 167.91619,-100.7876 -9.93264,6.1337 -11.80723,5.9552 -22.97656,7.8904 -12.95066,17.2991 16.42001,65.5638 -47.47271,77.0272 -36.27929,6.5206 -70.56361,-9.9745 -97.46692,15.87 z"
     id="path41"
     style="stroke-width:2.99318" />
  <path
     fill="url(#Gradient10)"
     d="m 1157.2942,431.63837 c -28.0767,-52.29031 -21.5534,-126.37571 5.7532,-177.75491 26.7198,-50.78074 73.365,-88.45763 128.995,-104.19357 57.5829,-16.91201 119.6312,-10.06681 172.0355,18.98139 48.8929,27.09794 85.0249,69.57154 100.2382,123.14216 16.7601,37.81386 11.368,101.96343 -4.4172,140.16139 -21.6948,52.4898 -60.4744,89.49678 -112.9059,111.51515 -56.253,23.78105 -119.8238,24.11452 -176.3295,0.92303 -54.5196,-22.67344 -88.2744,-60.75527 -113.3693,-112.77464 z"
     id="path42"
     style="fill:url(#Gradient10);stroke-width:2.99318" />
  <path
     fill="url(#Gradient9)"
     d="m 1530.8201,235.7864 c 9.677,14.22933 27.0808,50.28946 33.496,56.02704 16.7601,37.81386 11.368,101.96343 -4.4172,140.16139 -21.6948,52.4898 -60.4744,89.49678 -112.9059,111.51515 -56.253,23.78105 -119.8238,24.11452 -176.3295,0.92303 -54.5196,-22.67344 -88.2744,-60.75527 -113.3693,-112.77464 6.3761,-17.38544 24.6887,-19.77039 41.2501,-23.62323 8.4974,10.95708 9.5114,16.02474 21.147,20.43138 84.2126,-49.19672 201.5928,-95.9936 290.397,-142.68032 6.2315,-9.79291 4.721,-5.54106 2.6989,-19.46372 6.3731,-12.25525 10.2456,-19.12428 18.0329,-30.51608 z"
     id="path43"
     style="fill:url(#Gradient9);stroke-width:2.99318" />
  <path
     fill="#8e9eaf"
     d="m 1219.6913,428.44652 c 84.2126,-49.19672 201.5928,-95.9936 290.397,-142.68032 21.6706,40.34173 -207.7251,194.97363 -290.397,142.68032 z"
     id="path44"
     style="stroke-width:2.99318" />
  <path
     fill="url(#Gradient8)"
     d="m 1157.2942,431.63837 c -28.0767,-52.29031 -21.5534,-126.37571 5.7532,-177.75491 26.7198,-50.78074 73.365,-88.45763 128.995,-104.19357 57.5829,-16.91201 119.6312,-10.06681 172.0355,18.98139 48.8929,27.09794 85.0249,69.57154 100.2382,123.14216 -6.4152,-5.73758 -23.819,-41.79771 -33.496,-56.02704 -7.7873,11.3918 -11.6598,18.26083 -18.0329,30.51608 -39.8539,-87.8264 -153.491,-112.95922 -236.7194,-74.90419 -40.6815,18.63598 -71.9538,52.84115 -86.6346,94.75498 -14.1152,40.50549 -12.0269,84.17306 9.1111,121.86187 -16.5614,3.85284 -34.874,6.23779 -41.2501,23.62323 z"
     id="path45"
     style="fill:url(#Gradient8);stroke-width:2.99318" />
  <path
     fill="#014999"
     d="m 626.36551,1033.2807 c 32.71061,15.0452 390.37019,392.3412 445.10659,444.4172 -35.7889,11.999 -74.31886,28.9112 -110.71847,42.1907 -48.56801,-41.9227 -117.8498,-115.5259 -165.64746,-162.7189 L 666.069,1228.838 c -26.68363,34.9822 -59.47551,72.5697 -87.73286,106.7481 -22.04079,26.675 -54.45956,67.2281 -78.77514,89.8571 -20.18725,-7.3244 -35.90317,-13.5771 -55.50667,-22.3013 60.45946,-71.7898 116.16473,-144.4817 178.94713,-215.2323 -80.24351,-104.6431 -80.82125,-39.389 3.36405,-154.6289 z"
     id="path55"
     style="stroke-width:2.99318" />
  <path
     fill="#014999"
     d="m 699.00832,925.01996 c 244.58505,93.24544 499.79468,182.63794 746.32068,273.71874 -8.1603,18.9038 -33.8723,81.1598 -45.4747,92.1734 -250.558,-91.3249 -501.48592,-189.7005 -751.15313,-284.0385 16.94959,-25.19251 33.2011,-55.40188 50.30715,-81.85364 z"
     id="path56"
     style="stroke-width:2.99318" />
  <path
     fill="#014999"
     d="m 1443.7372,1575.6565 c 12.1652,5.3299 63.303,57.3163 78.0559,70.7448 -60.5706,61.3358 -155.483,160.4557 -218.0247,214.5563 -36.9443,-36.7121 -74.0782,-73.2159 -111.4015,-109.5707 -28.9103,-26.3209 -58.7383,-58.2692 -86.078,-86.4956 19.1222,-11.8504 65.632,-30.3701 88.5574,-40.1661 29.7228,26.0529 78.444,73.7222 104.4868,102.038 28.0319,-36.891 108.1758,-111.923 144.4041,-151.1067 z"
     id="path64"
     style="stroke-width:2.99318" />
  <path
     fill="#8e9eaf"
     d="m 1513.6298,588.08056 10.7812,0.84264 c 15.6527,20.68744 102.4107,396.71195 119.6131,450.3272 -24.7942,6.0742 -49.4768,12.5918 -74.0301,19.5531 -7.4714,3.7576 -3.6438,2.7481 -11.8403,2.0337 -7.2998,-12.166 -39.0084,-144.41617 -44.7585,-166.29171 -24.7339,-94.11779 -46.5941,-190.93018 -74.4544,-284.41676 24.0267,-7.63423 50.1176,-14.50624 74.689,-22.04817 z"
     id="path65"
     style="stroke-width:2.99318" />
  <path
     fill="url(#Gradient3)"
     d="m 889.49189,533.75069 c 16.8533,10.62956 76.98182,16.30463 98.53811,30.65304 4.28482,2.85241 12.7129,2.67376 17.9094,2.72438 -108.62416,69.65493 -232.93721,142.14736 -343.87534,208.62531 -14.19036,-18.4038 -37.51899,-57.59612 -49.22394,-77.73874 12.52639,-8.37859 29.18411,-18.13575 42.47479,-25.38292 78.73601,-42.92617 155.31158,-97.21437 234.17698,-138.88107 z"
     id="path69"
     style="fill:url(#Gradient3);stroke-width:2.99318" />
  <path
     fill="#014999"
     d="m 1156.9843,527.53968 c 13.2936,2.53382 37.0105,22.43226 48.7907,31.26342 L 969.65412,825.15855 c -14.47312,16.60233 -93.85611,113.20346 -108.0254,117.68442 -12.78515,-3.79628 -40.68745,-17.04294 -54.1105,-23.02172 l 209.93058,-239.8411 c 44.2892,-50.24776 91.7228,-106.33733 139.5355,-152.44047 z"
     id="path70"
     style="stroke-width:2.99318" />
  <path
     fill="url(#Gradient2)"
     d="m 342.51925,1225.4018 c 33.65547,0.1214 64.89772,0.2383 98.55619,2.1022 -0.52358,58.5996 1.40519,130.8567 -2.3771,188.0243 -30.44488,1.1612 -64.4915,0.1786 -95.20719,-0.089 -2.57568,-60.8892 -1.08021,-128.6266 -0.9719,-190.037 z"
     id="path71"
     style="fill:url(#Gradient2);stroke-width:2.99318" />
  <path
     fill="url(#Gradient1)"
     d="m 1088.5901,410.93006 c 17.0729,20.55944 34.9162,53.15678 48.5379,76.80385 -29.846,18.68361 -101.3485,64.72718 -131.1886,79.3942 -5.1965,-0.0506 -13.62458,0.12809 -17.9094,-2.72438 -21.55629,-14.34841 -81.68481,-20.02348 -98.53811,-30.65304 64.25685,-40.85385 136.94461,-80.35 199.09821,-122.82063 z"
     id="path72"
     style="fill:url(#Gradient1);stroke-width:2.99318" />
</svg>
