<?xml version="1.0" encoding="UTF-8" standalone="no"?>
<!-- Generated by SVGMaker - https://svgmaker.io -->

<!-- Prompt: Create a sleek, modern SVG logo for "Expert Alliance AI" featuring interconnected geometric shapes or nodes symbolizing collaboration and AI connectivity, using a professional color palette of blues, whites, and silvers. Incorporate clean lines and a minimalist, vector-friendly design that conveys innovation and expertise, with balanced composition suitable for branding and digital use. -->

<!-- Quality: manual -->

<!-- Type: generate -->

<!-- Created: 2026-01-06T20:57:46.187Z -->

<svg
   version="1.1"
   style="display:block"
   viewBox="0 0 1508.2322 728.14551"
   width="754.11609"
   height="364.07275"
   preserveAspectRatio="none"
   id="svg73"
   sodipodi:docname="ExpertAllianceAI-logo.svg"
   inkscape:version="1.4.3 (0d15f75, 2025-12-25)"
   xmlns:inkscape="http://www.inkscape.org/namespaces/inkscape"
   xmlns:sodipodi="http://sodipodi.sourceforge.net/DTD/sodipodi-0.dtd"
   xmlns="http://www.w3.org/2000/svg"
   xmlns:svg="http://www.w3.org/2000/svg">
  <sodipodi:namedview
     id="namedview73"
     pagecolor="#ffffff"
     bordercolor="#000000"
     borderopacity="0.25"
     inkscape:showpageshadow="2"
     inkscape:pageopacity="0.0"
     inkscape:pagecheckerboard="0"
     inkscape:deskcolor="#d1d1d1"
     showguides="false"
     inkscape:lockguides="false"
     inkscape:zoom="0.75488281"
     inkscape:cx="394.76326"
     inkscape:cy="213.94049"
     inkscape:window-width="1920"
     inkscape:window-height="991"
     inkscape:window-x="-9"
     inkscape:window-y="-9"
     inkscape:window-maximized="1"
     inkscape:current-layer="svg73" />
  <defs
     id="defs32">
    <linearGradient
       id="Gradient1"
       gradientUnits="userSpaceOnUse"
       x1="524.89301"
       y1="738.53003"
       x2="540.01099"
       y2="684.52399"
       gradientTransform="translate(-215.73208,-521.42078)">
      <stop
         class="stop0"
         offset="0"
         stop-opacity="1"
         stop-color="rgb(109,135,163)"
         id="stop1" />
      <stop
         class="stop1"
         offset="1"
         stop-opacity="1"
         stop-color="rgb(139,159,179)"
         id="stop2" />
    </linearGradient>
    <linearGradient
       id="Gradient2"
       gradientUnits="userSpaceOnUse"
       x1="344.186"
       y1="966.22601"
       x2="304.12201"
       y2="1015.4"
       gradientTransform="translate(-215.73208,-521.42078)">
      <stop
         class="stop0"
         offset="0"
         stop-opacity="1"
         stop-color="rgb(96,122,150)"
         id="stop3" />
      <stop
         class="stop1"
         offset="1"
         stop-opacity="1"
         stop-color="rgb(130,149,172)"
         id="stop4" />
    </linearGradient>
    <linearGradient
       id="Gradient3"
       gradientUnits="userSpaceOnUse"
       x1="439.13901"
       y1="815.10602"
       x2="479.642"
       y2="718.35999"
       gradientTransform="translate(-215.73208,-521.42078)">
      <stop
         class="stop0"
         offset="0"
         stop-opacity="1"
         stop-color="rgb(45,89,138)"
         id="stop5" />
      <stop
         class="stop1"
         offset="1"
         stop-opacity="1"
         stop-color="rgb(108,133,163)"
         id="stop6" />
    </linearGradient>
    <linearGradient
       id="Gradient4"
       gradientUnits="userSpaceOnUse"
       x1="1103.9301"
       y1="1312.53"
       x2="1046.77"
       y2="1183.05"
       gradientTransform="translate(-239.57685,-619.44924)">
      <stop
         class="stop0"
         offset="0"
         stop-opacity="1"
         stop-color="rgb(85,108,133)"
         id="stop7" />
      <stop
         class="stop1"
         offset="1"
         stop-opacity="1"
         stop-color="rgb(136,154,178)"
         id="stop8" />
    </linearGradient>
    <linearGradient
       id="Gradient5"
       gradientUnits="userSpaceOnUse"
       x1="963.01501"
       y1="1320.37"
       x2="962.258"
       y2="1180.05"
       gradientTransform="translate(-239.57685,-619.44924)">
      <stop
         class="stop0"
         offset="0"
         stop-opacity="1"
         stop-color="rgb(84,104,131)"
         id="stop9" />
      <stop
         class="stop1"
         offset="1"
         stop-opacity="1"
         stop-color="rgb(141,161,180)"
         id="stop10" />
    </linearGradient>
    <linearGradient
       id="Gradient6"
       gradientUnits="userSpaceOnUse"
       x1="991.04901"
       y1="894.62701"
       x2="935.03198"
       y2="706.64697"
       gradientTransform="translate(-239.57685,-619.44924)">
      <stop
         class="stop0"
         offset="0"
         stop-opacity="1"
         stop-color="rgb(1,61,131)"
         id="stop11" />
      <stop
         class="stop1"
         offset="1"
         stop-opacity="1"
         stop-color="rgb(1,92,181)"
         id="stop12" />
    </linearGradient>
    <linearGradient
       id="Gradient7"
       gradientUnits="userSpaceOnUse"
       x1="1238.78"
       y1="921.04498"
       x2="1228.54"
       y2="759.85303"
       gradientTransform="translate(-239.57685,-619.44924)">
      <stop
         class="stop0"
         offset="0"
         stop-opacity="1"
         stop-color="rgb(2,60,131)"
         id="stop13" />
      <stop
         class="stop1"
         offset="1"
         stop-opacity="1"
         stop-color="rgb(0,87,175)"
         id="stop14" />
    </linearGradient>
    <linearGradient
       id="Gradient8"
       gradientUnits="userSpaceOnUse"
       x1="645.427"
       y1="664.41602"
       x2="611.76801"
       y2="605.13202"
       gradientTransform="translate(-215.73208,-521.42078)">
      <stop
         class="stop0"
         offset="0"
         stop-opacity="1"
         stop-color="rgb(153,155,159)"
         id="stop15" />
      <stop
         class="stop1"
         offset="1"
         stop-opacity="1"
         stop-color="rgb(197,197,200)"
         id="stop16" />
    </linearGradient>
    <linearGradient
       id="Gradient9"
       gradientUnits="userSpaceOnUse"
       x1="669.82501"
       y1="730.79498"
       x2="640.58398"
       y2="650.82001"
       gradientTransform="translate(-215.73208,-521.42078)">
      <stop
         class="stop0"
         offset="0"
         stop-opacity="1"
         stop-color="rgb(107,112,122)"
         id="stop17" />
      <stop
         class="stop1"
         offset="1"
         stop-opacity="1"
         stop-color="rgb(172,173,177)"
         id="stop18" />
    </linearGradient>
    <linearGradient
       id="Gradient10"
       gradientUnits="userSpaceOnUse"
       x1="651.58197"
       y1="669.99701"
       x2="617.05902"
       y2="614.47601"
       gradientTransform="translate(-215.73208,-521.42078)">
      <stop
         class="stop0"
         offset="0"
         stop-opacity="1"
         stop-color="rgb(200,200,201)"
         id="stop19" />
      <stop
         class="stop1"
         offset="1"
         stop-opacity="1"
         stop-color="rgb(255,255,255)"
         id="stop20" />
    </linearGradient>
    <linearGradient
       id="Gradient11"
       gradientUnits="userSpaceOnUse"
       x1="326.052"
       y1="1122.51"
       x2="287.29901"
       y2="1066.5601"
       gradientTransform="translate(-215.73208,-521.42078)">
      <stop
         class="stop0"
         offset="0"
         stop-opacity="1"
         stop-color="rgb(198,197,198)"
         id="stop21" />
      <stop
         class="stop1"
         offset="1"
         stop-opacity="1"
         stop-color="rgb(255,255,255)"
         id="stop22" />
    </linearGradient>
    <linearGradient
       id="Gradient12"
       gradientUnits="userSpaceOnUse"
       x1="347.254"
       y1="1173.36"
       x2="287.76999"
       y2="1049.0699"
       gradientTransform="translate(-215.73208,-521.42078)">
      <stop
         class="stop0"
         offset="0"
         stop-opacity="1"
         stop-color="rgb(128,131,137)"
         id="stop23" />
      <stop
         class="stop1"
         offset="1"
         stop-opacity="1"
         stop-color="rgb(197,198,201)"
         id="stop24" />
    </linearGradient>
    <linearGradient
       id="Gradient13"
       gradientUnits="userSpaceOnUse"
       x1="315.95001"
       y1="842.604"
       x2="290.823"
       y2="791.41302"
       gradientTransform="translate(-215.73208,-521.42078)">
      <stop
         class="stop0"
         offset="0"
         stop-opacity="1"
         stop-color="rgb(13,96,172)"
         id="stop25" />
      <stop
         class="stop1"
         offset="1"
         stop-opacity="1"
         stop-color="rgb(58,163,222)"
         id="stop26" />
    </linearGradient>
    <linearGradient
       id="Gradient14"
       gradientUnits="userSpaceOnUse"
       x1="349.76001"
       y1="923.65802"
       x2="283.41599"
       y2="776.06"
       gradientTransform="translate(-215.73208,-521.42078)">
      <stop
         class="stop0"
         offset="0"
         stop-opacity="1"
         stop-color="rgb(0,47,110)"
         id="stop27" />
      <stop
         class="stop1"
         offset="1"
         stop-opacity="1"
         stop-color="rgb(3,93,177)"
         id="stop28" />
    </linearGradient>
    <linearGradient
       id="Gradient15"
       gradientUnits="userSpaceOnUse"
       x1="762.68799"
       y1="1005.7"
       x2="730.30402"
       y2="948.604"
       gradientTransform="translate(-215.73208,-521.42078)">
      <stop
         class="stop0"
         offset="0"
         stop-opacity="1"
         stop-color="rgb(11,94,171)"
         id="stop29" />
      <stop
         class="stop1"
         offset="1"
         stop-opacity="1"
         stop-color="rgb(60,163,223)"
         id="stop30" />
    </linearGradient>
    <linearGradient
       id="Gradient16"
       gradientUnits="userSpaceOnUse"
       x1="658.39502"
       y1="1138.26"
       x2="606.64001"
       y2="967"
       gradientTransform="translate(-215.73208,-521.42078)">
      <stop
         class="stop0"
         offset="0"
         stop-opacity="1"
         stop-color="rgb(0,46,111)"
         id="stop31" />
      <stop
         class="stop1"
         offset="1"
         stop-opacity="1"
         stop-color="rgb(3,96,183)"
         id="stop32" />
    </linearGradient>
  </defs>
  <path
     fill="url(#Gradient16)"
     d="m 531.83992,402.74922 c 12.082,-0.554 22.138,-1.22 33.987,1.481 23.394,5.51 43.649,20.072 56.323,40.493 13.161,21.553 17.089,47.496 10.9,71.976 -5.753,22.65 -19.779,42.68 -40.07,54.56 -20.689,12.17 -45.405,15.51 -68.581,9.26 -29.403,-8.07 -44.895,-24.72 -59.412,-50.15 -13.71,5.95 -35.527,12.4 -50.187,17.17 -29.823,9.6 -59.589,19.37 -89.299,29.32 l -117.864,38.91 c -1.358,-9.33 -2.19,-23.77 -2.588,-33.26 26.154,-6.78 62.886,-19.89 89.261,-28.51 l 162.01,-53.36 c -1.497,-51.276 24.634,-87.676 75.52,-97.89 z"
     id="path32"
     style="fill:url(#Gradient16)" />
  <path
     fill="url(#Gradient15)"
     d="m 524.92592,417.52822 c 27.728,-6.882 57.436,1.991 72.084,27.81 0.253,4.716 0.95,8.679 -0.687,13.006 -2.741,2.818 -102.814,37.115 -112.954,39.815 -10.573,-8.74 -5.608,-40.207 2.02,-50.869 9.4,-16.142 22.026,-24.437 39.537,-29.762 z"
     id="path33"
     style="fill:url(#Gradient15)" />
  <path
     fill="#40a9e1"
     d="m 485.38892,447.29022 c 9.4,-16.142 22.026,-24.437 39.537,-29.762 l 6.321,0.709 c -4.464,9.896 -32.034,29.824 -43.713,30.158 z"
     id="path34" />
  <path
     fill="url(#Gradient14)"
     d="m 94.184915,246.20922 c 45.765005,-4.015 86.064005,29.962 89.840005,75.748 3.776,45.785 -30.411,85.906 -76.215,89.443 -45.468005,3.512 -85.230005,-30.369 -88.979005,-75.818 -3.749,-45.449 29.925,-85.388 75.354,-89.373 z"
     id="path35"
     style="fill:url(#Gradient14)" />
  <path
     fill="url(#Gradient13)"
     d="m 89.343915,259.95022 c 28.985005,-1.698 54.214005,7.517 62.866005,38.341 -30.368,14.207 -76.787005,27.777 -108.804005,38.789 -8.328,-18.116 -7.127,-42.11 8.694,-55.807 10.346,-11.997 22.199,-17.564 37.244,-21.323 z"
     id="path36"
     style="fill:url(#Gradient13)" />
  <path
     fill="#40a9e1"
     d="m 52.099915,281.27322 c 10.346,-11.997 22.199,-17.564 37.244,-21.323 l 4.062,1.597 c -1.066,1.457 -17.637,10.093 -20.703,13.594 -2.461,2.811 -16.507,7.507 -20.603,6.132 z"
     id="path37" />
  <path
     fill="url(#Gradient12)"
     d="m 52.734915,655.17922 c -27.827,-25.11 -34.02,-66.39 -14.786,-98.57 19.234,-32.17 58.529,-46.26 93.825005,-33.64 35.295,12.62 56.746,48.43 51.218,85.51 -4.266,28.61 -23.922,52.56 -51.154,62.32 -27.232,9.77 -57.627005,3.77 -79.103005,-15.62 z"
     id="path38"
     style="fill:url(#Gradient12)" />
  <path
     fill="#71757d"
     d="m 52.734915,655.17922 c 5.137,-0.2 14.236,9.2 17.521,8.72 22.89,-3.44 50.854005,-5.02 70.773005,-17.67 12.215,-7.76 24.737,-18.48 37.174,-26.38 0.764,-0.49 2.642,-9 2.962,-10.37 l 1.827,-1 c -4.266,28.61 -23.922,52.56 -51.154,62.32 -27.232,9.77 -57.627005,3.77 -79.103005,-15.62 z"
     id="path39" />
  <path
     fill="url(#Gradient11)"
     d="m 101.69692,530.95922 c 30.118,0.1 47.731,8.47 59.546,37.68 -37.283,23.03 -73.918005,35.37 -112.897005,53.74 -9.45,-18.8 -13.921,-38.07 -2.454,-57.57 11.091,-21.95 32.115,-32.12 55.805005,-33.85 z"
     id="path40"
     style="fill:url(#Gradient11)" />
  <path
     fill="#fefefe"
     d="m 45.891915,564.80922 c 11.091,-21.95 32.115,-32.12 55.805005,-33.85 -3.301005,2.06 -3.924005,2 -7.636005,2.65 -4.304,5.81 5.457,22.02 -15.777,25.87 -12.057,2.19 -23.451,-3.35 -32.392,5.33 z"
     id="path41" />
  <path
     fill="url(#Gradient10)"
     d="m 364.32392,171.93422 c -9.331,-17.562 -7.163,-42.444 1.912,-59.7 8.88,-17.054999 24.382,-29.708999 42.87,-34.993999 19.137,-5.68 39.758,-3.381 57.174,6.375 16.249,9.101 28.257,23.365999 33.313,41.357999 5.57,12.7 3.778,34.245 -1.468,47.074 -7.21,17.629 -20.098,30.058 -37.523,37.453 -18.695,7.987 -39.822,8.099 -58.601,0.31 -18.119,-7.615 -29.337,-20.405 -37.677,-37.876 z"
     id="path42"
     style="fill:url(#Gradient10)" />
  <path
     fill="url(#Gradient9)"
     d="m 488.46092,106.15622 c 3.216,4.779 9,16.89 11.132,18.817 5.57,12.7 3.778,34.245 -1.468,47.074 -7.21,17.629 -20.098,30.058 -37.523,37.453 -18.695,7.987 -39.822,8.099 -58.601,0.31 -18.119,-7.615 -29.337,-20.405 -37.677,-37.876 2.119,-5.839 8.205,-6.64 13.709,-7.934 2.824,3.68 3.161,5.382 7.028,6.862 27.987,-16.523 66.997,-32.24 96.51,-47.92 2.071,-3.289 1.569,-1.861 0.897,-6.537 2.118,-4.116 3.405,-6.423 5.993,-10.249 z"
     id="path43"
     style="fill:url(#Gradient9)" />
  <path
     fill="#8e9eaf"
     d="m 385.06092,170.86222 c 27.987,-16.523 66.997,-32.24 96.51,-47.92 7.202,13.549 -69.035,65.483 -96.51,47.92 z"
     id="path44" />
  <path
     fill="url(#Gradient8)"
     d="m 364.32392,171.93422 c -9.331,-17.562 -7.163,-42.444 1.912,-59.7 8.88,-17.054999 24.382,-29.708999 42.87,-34.993999 19.137,-5.68 39.758,-3.381 57.174,6.375 16.249,9.101 28.257,23.365999 33.313,41.357999 -2.132,-1.927 -7.916,-14.038 -11.132,-18.817 -2.588,3.826 -3.875,6.133 -5.993,10.249 -13.245,-29.496999 -51.011,-37.937999 -78.671,-25.156999 -13.52,6.259 -23.913,17.746999 -28.792,31.823999 -4.691,13.604 -3.997,28.27 3.028,40.928 -5.504,1.294 -11.59,2.095 -13.709,7.934 z"
     id="path45"
     style="fill:url(#Gradient8)" />
  <path
     fill="url(#Gradient7)"
     d="m 1000.7132,139.90376 c 47.71,-5.153 62.45,46.227 56.98,83.904 -4.9,33.712 -27.74,56.262 -63.57005,50.223 -11.24,-1.895 -17.21,-6.502 -23.71,-15.58 l 0.01,23.848 c 0,8.077 0.11,16.153 0.32,24.226 l -34.24,0.131 -0.14,-164.775 c 10.72,-0.01 21.44,-0.129 32.15,-0.356 0.09,5.912 -0.11,12.235 -0.19,18.182 0.96,-1.358 1.96,-2.69 3,-3.993 8.87,-11.278 15.79,-14.146 29.39005,-15.81 z m -19.72005,103.502 c 8.39,3.844 10.85,4.739 20.33005,4.166 32.82,-10.532 32.79,-79.897 -6.54004,-80.982 -7.77001,1.783 -15.03001,4.951 -18.71001,12.281 -9.82,19.533 -8.46,47.771 4.92,64.535 z"
     id="path46"
     style="fill:url(#Gradient7)" />
  <path
     fill="#014999"
     d="m 719.32015,322.41576 29.493,0.171 c 2.633,8.189 5.464,16.378 8.646,24.368 21.274,53.446 40.464,108.206 62.344,161.376 -11.58,0.09 -22.93,0.04 -34.49,0.88 -6.78,-16.02 -12.61,-34.33 -19.65,-51.24 l -13.99,0.23 c -17.418,-0.06 -35.143,-0.29 -52.526,0.29 -4.606,16.14 -13.5,34.15 -17.511,49.84 -11.483,0.43 -22.822,0.3 -34.307,0.24 2.801,-11.26 20.427,-55.19 25.287,-67.31 15.533,-38.75 30.482,-80.676 46.704,-118.845 z m -11.151,109.355 24.754,-0.15 c 7.466,0.01 16.987,-0.23 24.284,0.27 -2.732,-7.63 -22.04,-63.354 -24.335,-65.723 -8.795,21.893 -16.254,43.653 -24.703,65.603 z"
     id="path47" />
  <path
     fill="url(#Gradient6)"
     d="m 664.71015,92.795759 c 39.633,0.756 80.853,-0.066 120.623,-0.128 -0.12,9.148001 0.06,18.645001 0.11,27.824001 l -85.198,0.027 0.18,48.833 c 24.661,-0.881 49.849,0.303 75.008,-0.767 0,9.297 -0.08,18.594 -0.26,27.89 -24.162,-0.723 -50.391,-0.278 -74.61,-0.043 -0.567,15.286 -0.228,31.401 -0.13,46.764 17.714,1.111 66.39,0.751 84.02,-0.358 l -0.06,29.625 c -39.866,-0.401 -79.739,-0.352 -119.607,0.147 -0.761,-26.104 -0.349,-53.33 -0.36,-79.565 -0.166,-33.416 -0.071,-66.834 0.284,-100.249001 z"
     id="path48"
     style="fill:url(#Gradient6)" />
  <path
     fill="url(#Gradient5)"
     d="m 710.95715,552.43076 c 9.155,-0.1 18.637,0.06 27.822,0.09 l 5.072,14.41 c 9.332,17.79 21.552,55.05 30.022,74.73 4.24,9.86 21.49,54.19 23.27,62.6 -10.01,0.12 -20.99,-0.25 -30.79,0.04 -4.17,-11.32 -8.419,-23.58 -13.106,-34.62 -13.051,1.97 -44.115,0.12 -58.999,0.56 -3.803,10.36 -8.39,23.9 -12.741,33.86 -10.152,0.16 -20.306,0.2 -30.459,0.12 16.359,-42.06 33.922,-84.29 49.983,-126.28 3.529,-8.01 6.802,-17.26 9.926,-25.51 z m -8.32,94.42 24.493,-0.24 c 6.307,0.08 13.123,0.02 19.378,0.28 -2.965,-8.04 -19.158,-54.55 -22.878,-57.74 -3.066,14.45 -15.611,42.12 -20.993,57.7 z"
     id="path49"
     style="fill:url(#Gradient5)" />
  <path
     fill="#8e9eaf"
     d="m 710.95715,552.43076 c 9.155,-0.1 18.637,0.06 27.822,0.09 l 5.072,14.41 c -1.622,-1.99 -0.603,-1.36 -3.009,-1.95 l -0.14,-1.3 -0.242,0.8 -0.686,-1.83 -0.129,1.95 c -2.812,0.7 -1.538,0.91 -3.976,0.09 l -1.784,-3.28 -1.042,-0.22 -2.524,3.62 c -21.443,1.26 -10.968,6.8 -24.621,13.15 -1.591,0.01 -3.077,0.05 -4.667,-0.02 3.529,-8.01 6.802,-17.26 9.926,-25.51 z"
     id="path50" />
  <path
     fill="#014999"
     d="m 1123.1732,140.78076 c 54.25,-3.73 69.2,25.151 68.1,73.655 -27.85,-0.357 -55.71,-0.37 -83.56,-0.04 4.04,30.043 25.99,41.885 53.23,27.211 3.85,-2.076 7.04,-4.766 11.08,-6.581 l 4.41,3.759 c 2.63,1.828 10.31,9.027 13.08,11.527 -19.89,26.437 -57.13,31.869 -85.47,16.4 -32.78,-17.886 -37.5,-69.926 -19.51,-99.486 9.22,-15.152 21.67,-22.348 38.64,-26.445 z m -15.51,51.861 34.01,0.014 18.5,0.025 c -4.18,-19.83 -8.87,-29.345 -31.53,-27.885 -15.37,5.262 -17.2,13.272 -20.98,27.846 z"
     id="path51" />
  <path
     fill="#014999"
     d="m 1052.4132,378.95076 c 59.9,-2.205 59.46,35.18 58.12,81.84 -0.42,14.98 0.15,32.84 2.11,47.64 -8.89,0.07 -23.97,3.13 -30.39,-2.23 -2,-3.23 -1.68,-5.99 -1.85,-9.85 -1.55,1.3 -3.11,2.58 -4.67,3.86 -19.78,16.36 -49.31,17.73 -66.25,-3.25 -23.80005,-42.08 19.23,-69.8 56.5,-66.06 2.82,0.28 10.17,0.18 12.29,-1.67 1.11,-12.16 -5,-21.36 -17.35,-22.88 -15.73,-1.93 -25.89,3.28 -38.24,11.51 -3.4,-6 -10.38,-14.79 -14.71,-20.56 13.41,-11.44 27.21,-16.34 44.44,-18.35 z m 0.57,107.75 c 24.57,-3.45 25.45,-13.73 25.8,-36.25 -3.97,0.05 -11.15,-0.08 -14.82,0.41 -9.74,1.62 -20.03,2.92 -25.68,12.02 -8.69,14 2,21.59 14.7,23.82 z"
     id="path52" />
  <path
     fill="#014999"
     d="m 1440.9932,378.78076 c 1.97,-0.142 3.96,-0.227 5.94,-0.254 46.67,-0.513 56.05,36.354 56,74.144 l -83.03,0.01 c 2.11,8.82 3.53,15.7 9.48,22.77 5.08,6.06 12.48,9.69 20.37,10.01 13.2,0.66 21.3,-5.75 30.36,-13.79 l 5.89,5.09 c 4.95,4.94 7.02,6.87 12.65,11.02 -18.48,26.64 -56.74,32.37 -83.13,14.95 -13.64,-9.12 -23,-23.38 -25.95,-39.52 -7.61,-40.15 7.9,-76.58 51.42,-84.43 z m -20.27,52.02 26.45,-0.23 25.52,-0.02 c -3.71,-15.48 -8.67,-28.06 -27.4,-26.72 -17.5,2.37 -20.01,11.45 -24.57,26.97 z"
     id="path53" />
  <path
     fill="#014999"
     d="m 1198.1132,378.77376 c 2.1,-0.131 4.21,-0.205 6.31,-0.221 49.42,-0.098 43.99,47.888 43.84,82.128 -0.12,15.96 -0.11,31.92 0.03,47.88 l -34.8,0.09 0.42,-48.57 c 0.17,-15.31 2.86,-37.61 -8.14,-49.34 -8.64,-9.23 -21.92,-4.25 -30.63,2.16 -2.2,3.18 -5.27,8.54 -5.65,12.27 -2.59,25.53 -1.37,57.46 -1.24,83.22 -11.05,0.81 -21.21,-0.37 -32.91,1.02 l -0.05,-81.31 c -0.01,-14.09 0.5,-33.66 -0.69,-47.23 10.9,0.32 21.8,0.2 32.69,-0.354 0.21,6.464 -0.38,11.414 -1.02,17.824 l 1.96,-2.8 c 8.19,-11.51 16.56,-14.58 29.88,-16.767 z"
     id="path54" />
  <path
     fill="#014999"
     d="m 187.87592,373.99922 c 10.871,5.053 129.735,131.77 147.926,149.26 -11.894,4.03 -24.699,9.71 -36.796,14.17 -16.141,-14.08 -39.166,-38.8 -55.051,-54.65 l -42.884,-43.101 c -8.868,11.749 -19.766,24.373 -29.157,35.852 -7.325,8.959 -18.099,22.579 -26.18,30.179 -6.709,-2.46 -11.932,-4.56 -18.447,-7.49 20.093,-24.111 38.606,-48.525 59.471,-72.287 -26.668,-35.145 -26.86,-13.229 1.118,-51.933 z"
     id="path55" />
  <path
     fill="#014999"
     d="m 212.01792,337.63922 c 81.285,31.317 166.101,61.34 248.031,91.93 -2.712,6.349 -11.257,27.258 -15.113,30.957 -83.27,-30.672 -166.663,-63.712 -249.637,-95.396 5.633,-8.461 11.034,-18.607 16.719,-27.491 z"
     id="path56" />
  <path
     fill="#014999"
     d="m 888.05315,141.59776 c 11.31,0.335 24.45,0.228 35.76,-0.022 -12.83,19.82 -27.37,42.981 -41.12,61.909 l 0.77,1.059 c 4.95,6.865 41.64,64.145 41.08,67.638 l -8,0.272 -28.15,-0.234 c -9.6,-15.435 -18.94,-31.027 -28.03,-46.77 -10.53,14.653 -18.75,32.639 -29.67,46.781 -11.63,0.72 -23.03,-0.418 -35.69,0.626 8.65,-12.898 37.19,-60.352 45.74,-69.386 -13.29,-20.468 -26.36,-41.078 -39.21,-61.827 5.17,0.697 29.12,0.125 36.57,0.368 5.28,7.684 21.21,34.517 24.7,42.472 7.44,-12.945 19.42,-30.532 25.25,-42.886 z"
     id="path57" />
  <path
     fill="#014999"
     d="m 1318.3732,110.39376 c 11,0.292 23.07,0.08 34.15,0.1 -0.41,10.392 -0.29,21.667 -0.37,32.13 l 26.44,-0.723 c 0.3,8.738 0.39,17.482 0.28,26.225 -8.41,-0.313 -17.71,0.072 -26.48,-0.153 -0.43,18.188 -0.25,36.887 -0.28,55.108 -0.01,6.156 0.97,17.714 6.1,21.715 4.96,3.868 15.98,2.035 22.2,1.498 -0.2,7.469 -0.01,12.545 0.48,20.021 -1.78,10.672 -29.35,8.04 -37.49,6.705 -29.32,-4.808 -24.4,-44.026 -24.72,-65.761 -0.19,-12.994 0.09,-26.079 0.15,-38.969 l -20.52,0.089 c -0.25,-8.71 -0.15,-17.773 -0.18,-26.513 5.74,0.57 14.64,0.567 20.63,0.74 0.39,-10.038 -0.17,-22.036 -0.39,-32.212 z"
     id="path58" />
  <path
     fill="#014999"
     d="m 1325.0732,378.85276 c 25.39,-2.278 35.62,4.798 53.05,21.678 -7.07,7.09 -12.64,12.32 -20.24,18.82 -6.36,-6.42 -14.49,-12.68 -23.83,-13.19 -7.37,-0.4 -14.19,1.45 -19.6,6.53 -4.75,4.47 -9.82,13.53 -11.1,19.89 -2.41,12.99 -1.1,27.48 6.41,38.56 11.03,16.27 31.48,17.8 46.42,6.07 2,-1.57 3.42,-2.52 5.79,-3.5 2.96,0.38 3.57,1.51 5.6,3.52 l 12.01,10.83 c -0.64,1.11 -1.31,2.21 -2.03,3.28 -7.33,10.76 -21.24,17.82 -34.09,20.09 -74.85,13.2 -100.27,-88.09 -43.09,-125 7.24,-4.67 16.12,-6.344 24.7,-7.578 z"
     id="path59" />
  <path
     fill="#014999"
     d="m 832.07315,322.23376 c 10.3,0.647 23.03,0.295 33.51,0.279 -0.68,61.428 1.2,124.668 -0.27,185.808 -10.24,0.54 -22.46,0.25 -32.85,0.26 -1.87,-60.3 -0.13,-125.55 -0.39,-186.347 z"
     id="path60" />
  <path
     fill="#014999"
     d="m 892.45315,322.57276 c 10.58,-0.035 22.42,0.161 32.91,-0.168 l 0.07,121.936 c 0,13.23 -0.92,46.84 0.41,59.11 -0.12,2.88 0.22,1.87 -1.1,4.34 -7.99,2.2 -23.43,1.12 -32.27,0.81 l 0.17,-68.58 c 0.14,-35.6 1.26,-82.557 -0.19,-117.448 z"
     id="path61" />
  <path
     fill="#010d1e"
     d="m 892.64315,440.02076 c 1.85,9.26 0.99,53.86 0.91,66.04 8.09,0.4 26.53,2.6 32.29,-2.61 -0.12,2.88 0.22,1.87 -1.1,4.34 -7.99,2.2 -23.43,1.12 -32.27,0.81 z"
     id="path62" />
  <path
     fill="#014999"
     d="m 1278.0232,139.91976 9.36,0.524 c -0.8,8.302 -0.63,22.758 -0.94,31.953 -45.7,-7.139 -41.67,29.072 -41.18,61.14 0.19,13.12 0.1,26.766 -0.02,39.891 -6.97,-0.819 -29.38,-0.666 -32.28,-2.178 l -0.08,-2.45 c -0.37,-42.127 0.46,-84.931 -0.44,-126.905 8.37,0.594 23.86,0.346 32.12,-0.064 l -0.39,19.84 c 9.49,-15.283 16.17,-20.528 33.85,-21.751 z"
     id="path63" />
  <path
     fill="#014999"
     d="m 459.51992,556.15922 c 4.043,1.79 21.038,19.25 25.941,23.76 -20.13,20.6 -51.673,53.89 -72.458,72.06 -12.278,-12.33 -24.619,-24.59 -37.023,-36.8 -9.608,-8.84 -19.521,-19.57 -28.607,-29.05 6.355,-3.98 21.812,-10.2 29.431,-13.49 9.878,8.75 26.07,24.76 34.725,34.27 9.316,-12.39 35.951,-37.59 47.991,-50.75 z"
     id="path64" />
  <path
     fill="#8e9eaf"
     d="m 482.74792,224.47622 3.583,0.283 c 5.202,6.948 34.035,133.238 39.752,151.245 -8.24,2.04 -16.443,4.229 -24.603,6.567 -2.483,1.262 -1.211,0.923 -3.935,0.683 -2.426,-4.086 -12.964,-48.503 -14.875,-55.85 -8.22,-31.61 -15.485,-64.125 -24.744,-95.523 7.985,-2.564 16.656,-4.872 24.822,-7.405 z"
     id="path65" />
  <path
     fill="url(#Gradient4)"
     d="m 822.26315,555.33076 0.62,-2.53 c 4.15,-1.02 25.95,-1.31 29.17,0.88 l -0.31,1.69 c -0.52,49.08 0.37,99.4 0.21,148.73 l -29.44,0.13 c -1.71,-47.21 -0.28,-101.13 -0.25,-148.9 z"
     id="path66"
     style="fill:url(#Gradient4)" />
  <path
     fill="#313752"
     d="m 822.26315,555.33076 0.62,-2.53 c 4.15,-1.02 25.95,-1.31 29.17,0.88 l -0.31,1.69 c -3.28,-1.37 -25.66,-1.34 -29.48,-0.04 z"
     id="path67" />
  <path
     fill="#014999"
     d="m 950.53315,380.95076 c 11.24,0.18 21.24,0.46 32.47,-0.38 l 0.3,128.01 c -10.97,-0.07 -21.94,-0.07 -32.91,0.01 0.64,-12.7 0.19,-27.21 0.25,-40.07 0.13,-29.19 0.09,-58.38 -0.11,-87.57 z"
     id="path68" />
  <path
     fill="url(#Gradient3)"
     d="m 275.32292,206.22922 c 5.601,3.57 25.584,5.476 32.748,10.295 1.424,0.958 4.225,0.898 5.952,0.915 -36.1,23.394 -77.414,47.741 -114.283,70.068 -4.716,-6.181 -12.469,-19.344 -16.359,-26.109 4.163,-2.814 9.699,-6.091 14.116,-8.525 26.167,-14.417 51.616,-32.65 77.826,-46.644 z"
     id="path69"
     style="fill:url(#Gradient3)" />
  <path
     fill="#014999"
     d="m 364.22092,204.14322 c 4.418,0.851 12.3,7.534 16.215,10.5 l -78.472,89.457 c -4.81,5.576 -31.192,38.02 -35.901,39.525 -4.249,-1.275 -13.522,-5.724 -17.983,-7.732 l 69.768,-80.552 c 14.719,-16.876 30.483,-35.714 46.373,-51.198 z"
     id="path70" />
  <path
     fill="url(#Gradient2)"
     d="m 93.542915,438.52422 c 11.185005,0.041 21.568005,0.08 32.754005,0.706 -0.174,19.681 0.467,43.949 -0.79,63.149 -10.118,0.39 -21.433,0.06 -31.641005,-0.03 -0.856,-20.45 -0.359,-43.2 -0.323,-63.825 z"
     id="path71"
     style="fill:url(#Gradient2)" />
  <path
     fill="url(#Gradient1)"
     d="m 341.49092,164.97922 c 5.674,6.905 11.604,17.853 16.131,25.795 -9.919,6.275 -33.682,21.739 -43.599,26.665 -1.727,-0.017 -4.528,0.043 -5.952,-0.915 -7.164,-4.819 -27.147,-6.725 -32.748,-10.295 21.355,-13.721 45.512,-26.986 66.168,-41.25 z"
     id="path72"
     style="fill:url(#Gradient1)" />
  <path
     fill="#014999"
     d="m 963.22315,322.85176 c 9.63,-2.301 19.43,3.142 22.56,12.537 1.34,4.037 1.3,8.408 -0.12,12.419 -0.9,2.537 -2.32,4.855 -4.18,6.803 -2.81,2.951 -6.5,4.925 -10.51,5.631 -10.17,1.79 -19.92,-4.826 -22.02,-14.936 -2.09,-10.111 4.23,-20.056 14.27,-22.454 z"
     id="path73" />
</svg>
