<!-- Generated by SVGMaker - https://svgmaker.io -->
<!-- Prompt: Create a sleek, modern SVG logo for "Expert Alliance AI" featuring interconnected geometric shapes or nodes symbolizing collaboration and AI connectivity, using a professional color palette of blues, whites, and silvers. Incorporate clean lines and a minimalist, vector-friendly design that conveys innovation and expertise, with balanced composition suitable for branding and digital use. -->
<!-- Quality: manual -->
<!-- Type: generate -->
<!-- Created: 2026-01-06T20:57:46.187Z -->
<svg version="1.1" xmlns="http://www.w3.org/2000/svg" style="display: block;" viewBox="0 0 2048 2048" width="1024" height="1024" preserveAspectRatio="none">
<defs>
	<linearGradient id="Gradient1" gradientUnits="userSpaceOnUse" x1="524.893" y1="738.53" x2="540.011" y2="684.524">
		<stop class="stop0" offset="0" stop-opacity="1" stop-color="rgb(109,135,163)"></stop>
		<stop class="stop1" offset="1" stop-opacity="1" stop-color="rgb(139,159,179)"></stop>
	</linearGradient>
	<linearGradient id="Gradient2" gradientUnits="userSpaceOnUse" x1="344.186" y1="966.226" x2="304.122" y2="1015.4">
		<stop class="stop0" offset="0" stop-opacity="1" stop-color="rgb(96,122,150)"></stop>
		<stop class="stop1" offset="1" stop-opacity="1" stop-color="rgb(130,149,172)"></stop>
	</linearGradient>
	<linearGradient id="Gradient3" gradientUnits="userSpaceOnUse" x1="439.139" y1="815.106" x2="479.642" y2="718.36">
		<stop class="stop0" offset="0" stop-opacity="1" stop-color="rgb(45,89,138)"></stop>
		<stop class="stop1" offset="1" stop-opacity="1" stop-color="rgb(108,133,163)"></stop>
	</linearGradient>
	<linearGradient id="Gradient4" gradientUnits="userSpaceOnUse" x1="1103.93" y1="1312.53" x2="1046.77" y2="1183.05">
		<stop class="stop0" offset="0" stop-opacity="1" stop-color="rgb(85,108,133)"></stop>
		<stop class="stop1" offset="1" stop-opacity="1" stop-color="rgb(136,154,178)"></stop>
	</linearGradient>
	<linearGradient id="Gradient5" gradientUnits="userSpaceOnUse" x1="963.015" y1="1320.37" x2="962.258" y2="1180.05">
		<stop class="stop0" offset="0" stop-opacity="1" stop-color="rgb(84,104,131)"></stop>
		<stop class="stop1" offset="1" stop-opacity="1" stop-color="rgb(141,161,180)"></stop>
	</linearGradient>
	<linearGradient id="Gradient6" gradientUnits="userSpaceOnUse" x1="991.049" y1="894.627" x2="935.032" y2="706.647">
		<stop class="stop0" offset="0" stop-opacity="1" stop-color="rgb(1,61,131)"></stop>
		<stop class="stop1" offset="1" stop-opacity="1" stop-color="rgb(1,92,181)"></stop>
	</linearGradient>
	<linearGradient id="Gradient7" gradientUnits="userSpaceOnUse" x1="1238.78" y1="921.045" x2="1228.54" y2="759.853">
		<stop class="stop0" offset="0" stop-opacity="1" stop-color="rgb(2,60,131)"></stop>
		<stop class="stop1" offset="1" stop-opacity="1" stop-color="rgb(0,87,175)"></stop>
	</linearGradient>
	<linearGradient id="Gradient8" gradientUnits="userSpaceOnUse" x1="645.427" y1="664.416" x2="611.768" y2="605.132">
		<stop class="stop0" offset="0" stop-opacity="1" stop-color="rgb(153,155,159)"></stop>
		<stop class="stop1" offset="1" stop-opacity="1" stop-color="rgb(197,197,200)"></stop>
	</linearGradient>
	<linearGradient id="Gradient9" gradientUnits="userSpaceOnUse" x1="669.825" y1="730.795" x2="640.584" y2="650.82">
		<stop class="stop0" offset="0" stop-opacity="1" stop-color="rgb(107,112,122)"></stop>
		<stop class="stop1" offset="1" stop-opacity="1" stop-color="rgb(172,173,177)"></stop>
	</linearGradient>
	<linearGradient id="Gradient10" gradientUnits="userSpaceOnUse" x1="651.582" y1="669.997" x2="617.059" y2="614.476">
		<stop class="stop0" offset="0" stop-opacity="1" stop-color="rgb(200,200,201)"></stop>
		<stop class="stop1" offset="1" stop-opacity="1" stop-color="rgb(255,255,255)"></stop>
	</linearGradient>
	<linearGradient id="Gradient11" gradientUnits="userSpaceOnUse" x1="326.052" y1="1122.51" x2="287.299" y2="1066.56">
		<stop class="stop0" offset="0" stop-opacity="1" stop-color="rgb(198,197,198)"></stop>
		<stop class="stop1" offset="1" stop-opacity="1" stop-color="rgb(255,255,255)"></stop>
	</linearGradient>
	<linearGradient id="Gradient12" gradientUnits="userSpaceOnUse" x1="347.254" y1="1173.36" x2="287.77" y2="1049.07">
		<stop class="stop0" offset="0" stop-opacity="1" stop-color="rgb(128,131,137)"></stop>
		<stop class="stop1" offset="1" stop-opacity="1" stop-color="rgb(197,198,201)"></stop>
	</linearGradient>
	<linearGradient id="Gradient13" gradientUnits="userSpaceOnUse" x1="315.95" y1="842.604" x2="290.823" y2="791.413">
		<stop class="stop0" offset="0" stop-opacity="1" stop-color="rgb(13,96,172)"></stop>
		<stop class="stop1" offset="1" stop-opacity="1" stop-color="rgb(58,163,222)"></stop>
	</linearGradient>
	<linearGradient id="Gradient14" gradientUnits="userSpaceOnUse" x1="349.76" y1="923.658" x2="283.416" y2="776.06">
		<stop class="stop0" offset="0" stop-opacity="1" stop-color="rgb(0,47,110)"></stop>
		<stop class="stop1" offset="1" stop-opacity="1" stop-color="rgb(3,93,177)"></stop>
	</linearGradient>
	<linearGradient id="Gradient15" gradientUnits="userSpaceOnUse" x1="762.688" y1="1005.7" x2="730.304" y2="948.604">
		<stop class="stop0" offset="0" stop-opacity="1" stop-color="rgb(11,94,171)"></stop>
		<stop class="stop1" offset="1" stop-opacity="1" stop-color="rgb(60,163,223)"></stop>
	</linearGradient>
	<linearGradient id="Gradient16" gradientUnits="userSpaceOnUse" x1="658.395" y1="1138.26" x2="606.64" y2="967">
		<stop class="stop0" offset="0" stop-opacity="1" stop-color="rgb(0,46,111)"></stop>
		<stop class="stop1" offset="1" stop-opacity="1" stop-color="rgb(3,96,183)"></stop>
	</linearGradient>
</defs>
<path transform="translate(0,0)" fill="url(#Gradient16)" d="M 747.572 924.17 C 759.654 923.616 769.71 922.95 781.559 925.651 C 804.953 931.161 825.208 945.723 837.882 966.144 C 851.043 987.697 854.971 1013.64 848.782 1038.12 C 843.029 1060.77 829.003 1080.8 808.712 1092.68 C 788.023 1104.85 763.307 1108.19 740.131 1101.94 C 710.728 1093.87 695.236 1077.22 680.719 1051.79 C 667.009 1057.74 645.192 1064.19 630.532 1068.96 C 600.709 1078.56 570.943 1088.33 541.233 1098.28 L 423.369 1137.19 C 422.011 1127.86 421.179 1113.42 420.781 1103.93 C 446.935 1097.15 483.667 1084.04 510.042 1075.42 L 672.052 1022.06 C 670.555 970.784 696.686 934.384 747.572 924.17 z"></path>
<path transform="translate(0,0)" fill="url(#Gradient15)" d="M 740.658 938.949 C 768.386 932.067 798.094 940.94 812.742 966.759 C 812.995 971.475 813.692 975.438 812.055 979.765 C 809.314 982.583 709.241 1016.88 699.101 1019.58 C 688.528 1010.84 693.493 979.373 701.121 968.711 C 710.521 952.569 723.147 944.274 740.658 938.949 z"></path>
<path transform="translate(0,0)" fill="rgb(64,169,225)" d="M 701.121 968.711 C 710.521 952.569 723.147 944.274 740.658 938.949 L 746.979 939.658 C 742.515 949.554 714.945 969.482 703.266 969.816 L 701.121 968.711 z"></path>
<path transform="translate(0,0)" fill="url(#Gradient14)" d="M 309.917 767.63 C 355.682 763.615 395.981 797.592 399.757 843.378 C 403.533 889.163 369.346 929.284 323.542 932.821 C 278.074 936.333 238.312 902.452 234.563 857.003 C 230.814 811.554 264.488 771.615 309.917 767.63 z"></path>
<path transform="translate(0,0)" fill="url(#Gradient13)" d="M 305.076 781.371 C 334.061 779.673 359.29 788.888 367.942 819.712 C 337.574 833.919 291.155 847.489 259.138 858.501 C 250.81 840.385 252.011 816.391 267.832 802.694 C 278.178 790.697 290.031 785.13 305.076 781.371 z"></path>
<path transform="translate(0,0)" fill="rgb(64,169,225)" d="M 267.832 802.694 C 278.178 790.697 290.031 785.13 305.076 781.371 L 309.138 782.968 C 308.072 784.425 291.501 793.061 288.435 796.562 C 285.974 799.373 271.928 804.069 267.832 802.694 z"></path>
<path transform="translate(0,0)" fill="url(#Gradient12)" d="M 268.467 1176.6 C 240.64 1151.49 234.447 1110.21 253.681 1078.03 C 272.915 1045.86 312.21 1031.77 347.506 1044.39 C 382.801 1057.01 404.252 1092.82 398.724 1129.9 C 394.458 1158.51 374.802 1182.46 347.57 1192.22 C 320.338 1201.99 289.943 1195.99 268.467 1176.6 z"></path>
<path transform="translate(0,0)" fill="rgb(113,117,125)" d="M 268.467 1176.6 C 273.604 1176.4 282.703 1185.8 285.988 1185.32 C 308.878 1181.88 336.842 1180.3 356.761 1167.65 C 368.976 1159.89 381.498 1149.17 393.935 1141.27 C 394.699 1140.78 396.577 1132.27 396.897 1130.9 L 398.724 1129.9 C 394.458 1158.51 374.802 1182.46 347.57 1192.22 C 320.338 1201.99 289.943 1195.99 268.467 1176.6 z"></path>
<path transform="translate(0,0)" fill="url(#Gradient11)" d="M 317.429 1052.38 C 347.547 1052.48 365.16 1060.85 376.975 1090.06 C 339.692 1113.09 303.057 1125.43 264.078 1143.8 C 254.628 1125 250.157 1105.73 261.624 1086.23 C 272.715 1064.28 293.739 1054.11 317.429 1052.38 z"></path>
<path transform="translate(0,0)" fill="rgb(254,254,254)" d="M 261.624 1086.23 C 272.715 1064.28 293.739 1054.11 317.429 1052.38 C 314.128 1054.44 313.505 1054.38 309.793 1055.03 C 305.489 1060.84 315.25 1077.05 294.016 1080.9 C 281.959 1083.09 270.565 1077.55 261.624 1086.23 z"></path>
<path transform="translate(0,0)" fill="url(#Gradient10)" d="M 580.056 693.355 C 570.725 675.793 572.893 650.911 581.968 633.655 C 590.848 616.6 606.35 603.946 624.838 598.661 C 643.975 592.981 664.596 595.28 682.012 605.036 C 698.261 614.137 710.269 628.402 715.325 646.394 C 720.895 659.094 719.103 680.639 713.857 693.468 C 706.647 711.097 693.759 723.526 676.334 730.921 C 657.639 738.908 636.512 739.02 617.733 731.231 C 599.614 723.616 588.396 710.826 580.056 693.355 z"></path>
<path transform="translate(0,0)" fill="url(#Gradient9)" d="M 704.193 627.577 C 707.409 632.356 713.193 644.467 715.325 646.394 C 720.895 659.094 719.103 680.639 713.857 693.468 C 706.647 711.097 693.759 723.526 676.334 730.921 C 657.639 738.908 636.512 739.02 617.733 731.231 C 599.614 723.616 588.396 710.826 580.056 693.355 C 582.175 687.516 588.261 686.715 593.765 685.421 C 596.589 689.101 596.926 690.803 600.793 692.283 C 628.78 675.76 667.79 660.043 697.303 644.363 C 699.374 641.074 698.872 642.502 698.2 637.826 C 700.318 633.71 701.605 631.403 704.193 627.577 z"></path>
<path transform="translate(0,0)" fill="rgb(142,158,175)" d="M 600.793 692.283 C 628.78 675.76 667.79 660.043 697.303 644.363 C 704.505 657.912 628.268 709.846 600.793 692.283 z"></path>
<path transform="translate(0,0)" fill="url(#Gradient8)" d="M 580.056 693.355 C 570.725 675.793 572.893 650.911 581.968 633.655 C 590.848 616.6 606.35 603.946 624.838 598.661 C 643.975 592.981 664.596 595.28 682.012 605.036 C 698.261 614.137 710.269 628.402 715.325 646.394 C 713.193 644.467 707.409 632.356 704.193 627.577 C 701.605 631.403 700.318 633.71 698.2 637.826 C 684.955 608.329 647.189 599.888 619.529 612.669 C 606.009 618.928 595.616 630.416 590.737 644.493 C 586.046 658.097 586.74 672.763 593.765 685.421 C 588.261 686.715 582.175 687.516 580.056 693.355 z"></path>
<path transform="translate(0,0)" fill="url(#Gradient7)" d="M 1240.29 759.353 C 1288 754.2 1302.74 805.58 1297.27 843.257 C 1292.37 876.969 1269.53 899.519 1233.7 893.48 C 1222.46 891.585 1216.49 886.978 1209.99 877.9 L 1210 901.748 C 1210 909.825 1210.11 917.901 1210.32 925.974 L 1176.08 926.105 L 1175.94 761.33 C 1186.66 761.32 1197.38 761.201 1208.09 760.974 C 1208.18 766.886 1207.98 773.209 1207.9 779.156 C 1208.86 777.798 1209.86 776.466 1210.9 775.163 C 1219.77 763.885 1226.69 761.017 1240.29 759.353 z M 1220.57 862.855 C 1228.96 866.699 1231.42 867.594 1240.9 867.021 C 1273.72 856.489 1273.69 787.124 1234.36 786.039 C 1226.59 787.822 1219.33 790.99 1215.65 798.32 C 1205.83 817.853 1207.19 846.091 1220.57 862.855 z"></path>
<path transform="translate(0,0)" fill="rgb(1,73,153)" d="M 958.897 941.865 L 988.39 942.036 C 991.023 950.225 993.854 958.414 997.036 966.404 C 1018.31 1019.85 1037.5 1074.61 1059.38 1127.78 C 1047.8 1127.87 1036.45 1127.82 1024.89 1128.66 C 1018.11 1112.64 1012.28 1094.33 1005.24 1077.42 L 991.25 1077.65 C 973.832 1077.59 956.107 1077.36 938.724 1077.94 C 934.118 1094.08 925.224 1112.09 921.213 1127.78 C 909.73 1128.21 898.391 1128.08 886.906 1128.02 C 889.707 1116.76 907.333 1072.83 912.193 1060.71 C 927.726 1021.96 942.675 980.034 958.897 941.865 z M 947.746 1051.22 L 972.5 1051.07 C 979.966 1051.08 989.487 1050.84 996.784 1051.34 C 994.052 1043.71 974.744 987.986 972.449 985.617 C 963.654 1007.51 956.195 1029.27 947.746 1051.22 z"></path>
<path transform="translate(0,0)" fill="url(#Gradient6)" d="M 904.287 712.245 C 943.92 713.001 985.14 712.179 1024.91 712.117 C 1024.79 721.265 1024.97 730.762 1025.02 739.941 L 939.822 739.968 L 940.002 788.801 C 964.663 787.92 989.851 789.104 1015.01 788.034 C 1015.01 797.331 1014.93 806.628 1014.75 815.924 C 990.588 815.201 964.359 815.646 940.14 815.881 C 939.573 831.167 939.912 847.282 940.01 862.645 C 957.724 863.756 1006.4 863.396 1024.03 862.287 L 1023.97 891.912 C 984.104 891.511 944.231 891.56 904.363 892.059 C 903.602 865.955 904.014 838.729 904.003 812.494 C 903.837 779.078 903.932 745.66 904.287 712.245 z"></path>
<path transform="translate(0,0)" fill="url(#Gradient5)" d="M 950.534 1171.88 C 959.689 1171.78 969.171 1171.94 978.356 1171.97 L 983.428 1186.38 C 992.76 1204.17 1004.98 1241.43 1013.45 1261.11 C 1017.69 1270.97 1034.94 1315.3 1036.72 1323.71 C 1026.71 1323.83 1015.73 1323.46 1005.93 1323.75 C 1001.76 1312.43 997.511 1300.17 992.824 1289.13 C 979.773 1291.1 948.709 1289.25 933.825 1289.69 C 930.022 1300.05 925.435 1313.59 921.084 1323.55 C 910.932 1323.71 900.778 1323.75 890.625 1323.67 C 906.984 1281.61 924.547 1239.38 940.608 1197.39 C 944.137 1189.38 947.41 1180.13 950.534 1171.88 z M 942.214 1266.3 L 966.707 1266.06 C 973.014 1266.14 979.83 1266.08 986.085 1266.34 C 983.12 1258.3 966.927 1211.79 963.207 1208.6 C 960.141 1223.05 947.596 1250.72 942.214 1266.3 z"></path>
<path transform="translate(0,0)" fill="rgb(142,158,175)" d="M 950.534 1171.88 C 959.689 1171.78 969.171 1171.94 978.356 1171.97 L 983.428 1186.38 C 981.806 1184.39 982.825 1185.02 980.419 1184.43 L 980.279 1183.13 L 980.037 1183.93 L 979.351 1182.1 L 979.222 1184.05 C 976.41 1184.75 977.684 1184.96 975.246 1184.14 L 973.462 1180.86 L 972.42 1180.64 L 969.896 1184.26 C 948.453 1185.52 958.928 1191.06 945.275 1197.41 C 943.684 1197.42 942.198 1197.46 940.608 1197.39 C 944.137 1189.38 947.41 1180.13 950.534 1171.88 z"></path>
<path transform="translate(0,0)" fill="rgb(1,73,153)" d="M 1362.75 760.23 C 1417 756.5 1431.95 785.381 1430.85 833.885 C 1403 833.528 1375.14 833.515 1347.29 833.845 C 1351.33 863.888 1373.28 875.73 1400.52 861.056 C 1404.37 858.98 1407.56 856.29 1411.6 854.475 L 1416.01 858.234 C 1418.64 860.062 1426.32 867.261 1429.09 869.761 C 1409.2 896.198 1371.96 901.63 1343.62 886.161 C 1310.84 868.275 1306.12 816.235 1324.11 786.675 C 1333.33 771.523 1345.78 764.327 1362.75 760.23 z M 1347.24 812.091 L 1381.25 812.105 L 1399.75 812.13 C 1395.57 792.3 1390.88 782.785 1368.22 784.245 C 1352.85 789.507 1351.02 797.517 1347.24 812.091 z"></path>
<path transform="translate(0,0)" fill="rgb(1,73,153)" d="M 1291.99 998.4 C 1351.89 996.195 1351.45 1033.58 1350.11 1080.24 C 1349.69 1095.22 1350.26 1113.08 1352.22 1127.88 C 1343.33 1127.95 1328.25 1131.01 1321.83 1125.65 C 1319.83 1122.42 1320.15 1119.66 1319.98 1115.8 C 1318.43 1117.1 1316.87 1118.38 1315.31 1119.66 C 1295.53 1136.02 1266 1137.39 1249.06 1116.41 C 1225.26 1074.33 1268.29 1046.61 1305.56 1050.35 C 1308.38 1050.63 1315.73 1050.53 1317.85 1048.68 C 1318.96 1036.52 1312.85 1027.32 1300.5 1025.8 C 1284.77 1023.87 1274.61 1029.08 1262.26 1037.31 C 1258.86 1031.31 1251.88 1022.52 1247.55 1016.75 C 1260.96 1005.31 1274.76 1000.41 1291.99 998.4 z M 1292.56 1106.15 C 1317.13 1102.7 1318.01 1092.42 1318.36 1069.9 C 1314.39 1069.95 1307.21 1069.82 1303.54 1070.31 C 1293.8 1071.93 1283.51 1073.23 1277.86 1082.33 C 1269.17 1096.33 1279.86 1103.92 1292.56 1106.15 z"></path>
<path transform="translate(0,0)" fill="rgb(1,73,153)" d="M 1680.57 998.23 C 1682.54 998.088 1684.53 998.003 1686.51 997.976 C 1733.18 997.463 1742.56 1034.33 1742.51 1072.12 L 1659.48 1072.13 C 1661.59 1080.95 1663.01 1087.83 1668.96 1094.9 C 1674.04 1100.96 1681.44 1104.59 1689.33 1104.91 C 1702.53 1105.57 1710.63 1099.16 1719.69 1091.12 L 1725.58 1096.21 C 1730.53 1101.15 1732.6 1103.08 1738.23 1107.23 C 1719.75 1133.87 1681.49 1139.6 1655.1 1122.18 C 1641.46 1113.06 1632.1 1098.8 1629.15 1082.66 C 1621.54 1042.51 1637.05 1006.08 1680.57 998.23 z M 1660.3 1050.25 L 1686.75 1050.02 L 1712.27 1050 C 1708.56 1034.52 1703.6 1021.94 1684.87 1023.28 C 1667.37 1025.65 1664.86 1034.73 1660.3 1050.25 z"></path>
<path transform="translate(0,0)" fill="rgb(1,73,153)" d="M 1437.69 998.223 C 1439.79 998.092 1441.9 998.018 1444 998.002 C 1493.42 997.904 1487.99 1045.89 1487.84 1080.13 C 1487.72 1096.09 1487.73 1112.05 1487.87 1128.01 L 1453.07 1128.1 L 1453.49 1079.53 C 1453.66 1064.22 1456.35 1041.92 1445.35 1030.19 C 1436.71 1020.96 1423.43 1025.94 1414.72 1032.35 C 1412.52 1035.53 1409.45 1040.89 1409.07 1044.62 C 1406.48 1070.15 1407.7 1102.08 1407.83 1127.84 C 1396.78 1128.65 1386.62 1127.47 1374.92 1128.86 L 1374.87 1047.55 C 1374.86 1033.46 1375.37 1013.89 1374.18 1000.32 C 1385.08 1000.64 1395.98 1000.52 1406.87 999.966 C 1407.08 1006.43 1406.49 1011.38 1405.85 1017.79 L 1407.81 1014.99 C 1416 1003.48 1424.37 1000.41 1437.69 998.223 z"></path>
<path transform="translate(0,0)" fill="rgb(1,73,153)" d="M 403.608 895.42 C 414.479 900.473 533.343 1027.19 551.534 1044.68 C 539.64 1048.71 526.835 1054.39 514.738 1058.85 C 498.597 1044.77 475.572 1020.05 459.687 1004.2 L 416.803 961.099 C 407.935 972.848 397.037 985.472 387.646 996.951 C 380.321 1005.91 369.547 1019.53 361.466 1027.13 C 354.757 1024.67 349.534 1022.57 343.019 1019.64 C 363.112 995.529 381.625 971.115 402.49 947.353 C 375.822 912.208 375.63 934.124 403.608 895.42 z"></path>
<path transform="translate(0,0)" fill="rgb(1,73,153)" d="M 427.75 859.06 C 509.035 890.377 593.851 920.4 675.781 950.99 C 673.069 957.339 664.524 978.248 660.668 981.947 C 577.398 951.275 494.005 918.235 411.031 886.551 C 416.664 878.09 422.065 867.944 427.75 859.06 z"></path>
<path transform="translate(0,0)" fill="rgb(1,73,153)" d="M 1127.63 761.047 C 1138.94 761.382 1152.08 761.275 1163.39 761.025 C 1150.56 780.845 1136.02 804.006 1122.27 822.934 L 1123.04 823.993 C 1127.99 830.858 1164.68 888.138 1164.12 891.631 L 1156.12 891.903 L 1127.97 891.669 C 1118.37 876.234 1109.03 860.642 1099.94 844.899 C 1089.41 859.552 1081.19 877.538 1070.27 891.68 C 1058.64 892.4 1047.24 891.262 1034.58 892.306 C 1043.23 879.408 1071.77 831.954 1080.32 822.92 C 1067.03 802.452 1053.96 781.842 1041.11 761.093 C 1046.28 761.79 1070.23 761.218 1077.68 761.461 C 1082.96 769.145 1098.89 795.978 1102.38 803.933 C 1109.82 790.988 1121.8 773.401 1127.63 761.047 z"></path>
<path transform="translate(0,0)" fill="rgb(1,73,153)" d="M 1557.95 729.843 C 1568.95 730.135 1581.02 729.923 1592.1 729.943 C 1591.69 740.335 1591.81 751.61 1591.73 762.073 L 1618.17 761.35 C 1618.47 770.088 1618.56 778.832 1618.45 787.575 C 1610.04 787.262 1600.74 787.647 1591.97 787.422 C 1591.54 805.61 1591.72 824.309 1591.69 842.53 C 1591.68 848.686 1592.66 860.244 1597.79 864.245 C 1602.75 868.113 1613.77 866.28 1619.99 865.743 C 1619.79 873.212 1619.98 878.288 1620.47 885.764 C 1618.69 896.436 1591.12 893.804 1582.98 892.469 C 1553.66 887.661 1558.58 848.443 1558.26 826.708 C 1558.07 813.714 1558.35 800.629 1558.41 787.739 L 1537.89 787.828 C 1537.64 779.118 1537.74 770.055 1537.71 761.315 C 1543.45 761.885 1552.35 761.882 1558.34 762.055 C 1558.73 752.017 1558.17 740.019 1557.95 729.843 z"></path>
<path transform="translate(0,0)" fill="rgb(1,73,153)" d="M 1564.65 998.302 C 1590.04 996.024 1600.27 1003.1 1617.7 1019.98 C 1610.63 1027.07 1605.06 1032.3 1597.46 1038.8 C 1591.1 1032.38 1582.97 1026.12 1573.63 1025.61 C 1566.26 1025.21 1559.44 1027.06 1554.03 1032.14 C 1549.28 1036.61 1544.21 1045.67 1542.93 1052.03 C 1540.52 1065.02 1541.83 1079.51 1549.34 1090.59 C 1560.37 1106.86 1580.82 1108.39 1595.76 1096.66 C 1597.76 1095.09 1599.18 1094.14 1601.55 1093.16 C 1604.51 1093.54 1605.12 1094.67 1607.15 1096.68 L 1619.16 1107.51 C 1618.52 1108.62 1617.85 1109.72 1617.13 1110.79 C 1609.8 1121.55 1595.89 1128.61 1583.04 1130.88 C 1508.19 1144.08 1482.77 1042.79 1539.95 1005.88 C 1547.19 1001.21 1556.07 999.536 1564.65 998.302 z"></path>
<path transform="translate(0,0)" fill="rgb(1,73,153)" d="M 1071.65 941.683 C 1081.95 942.33 1094.68 941.978 1105.16 941.962 C 1104.48 1003.39 1106.36 1066.63 1104.89 1127.77 C 1094.65 1128.31 1082.43 1128.02 1072.04 1128.03 C 1070.17 1067.73 1071.91 1002.48 1071.65 941.683 z"></path>
<path transform="translate(0,0)" fill="rgb(1,73,153)" d="M 1132.03 942.022 C 1142.61 941.987 1154.45 942.183 1164.94 941.854 L 1165.01 1063.79 C 1165.01 1077.02 1164.09 1110.63 1165.42 1122.9 C 1165.3 1125.78 1165.64 1124.77 1164.32 1127.24 C 1156.33 1129.44 1140.89 1128.36 1132.05 1128.05 L 1132.22 1059.47 C 1132.36 1023.87 1133.48 976.913 1132.03 942.022 z"></path>
<path transform="translate(0,0)" fill="rgb(1,13,30)" d="M 1132.22 1059.47 C 1134.07 1068.73 1133.21 1113.33 1133.13 1125.51 C 1141.22 1125.91 1159.66 1128.11 1165.42 1122.9 C 1165.3 1125.78 1165.64 1124.77 1164.32 1127.24 C 1156.33 1129.44 1140.89 1128.36 1132.05 1128.05 L 1132.22 1059.47 z"></path>
<path transform="translate(0,0)" fill="rgb(1,73,153)" d="M 1517.6 759.369 L 1526.96 759.893 C 1526.16 768.195 1526.33 782.651 1526.02 791.846 C 1480.32 784.707 1484.35 820.918 1484.84 852.986 C 1485.03 866.106 1484.94 879.752 1484.82 892.877 C 1477.85 892.058 1455.44 892.211 1452.54 890.699 L 1452.46 888.249 C 1452.09 846.122 1452.92 803.318 1452.02 761.344 C 1460.39 761.938 1475.88 761.69 1484.14 761.28 L 1483.75 781.12 C 1493.24 765.837 1499.92 760.592 1517.6 759.369 z"></path>
<path transform="translate(0,0)" fill="rgb(1,73,153)" d="M 675.252 1077.58 C 679.295 1079.37 696.29 1096.83 701.193 1101.34 C 681.063 1121.94 649.52 1155.23 628.735 1173.4 C 616.457 1161.07 604.116 1148.81 591.712 1136.6 C 582.104 1127.76 572.191 1117.03 563.105 1107.55 C 569.46 1103.57 584.917 1097.35 592.536 1094.06 C 602.414 1102.81 618.606 1118.82 627.261 1128.33 C 636.577 1115.94 663.212 1090.74 675.252 1077.58 z"></path>
<path transform="translate(0,0)" fill="rgb(142,158,175)" d="M 698.48 745.897 L 702.063 746.18 C 707.265 753.128 736.098 879.418 741.815 897.425 C 733.575 899.465 725.372 901.654 717.212 903.992 C 714.729 905.254 716.001 904.915 713.277 904.675 C 710.851 900.589 700.313 856.172 698.402 848.825 C 690.182 817.215 682.917 784.7 673.658 753.302 C 681.643 750.738 690.314 748.43 698.48 745.897 z"></path>
<path transform="translate(0,0)" fill="url(#Gradient4)" d="M 1061.84 1174.78 L 1062.46 1172.25 C 1066.61 1171.23 1088.41 1170.94 1091.63 1173.13 L 1091.32 1174.82 C 1090.8 1223.9 1091.69 1274.22 1091.53 1323.55 L 1062.09 1323.68 C 1060.38 1276.47 1061.81 1222.55 1061.84 1174.78 z"></path>
<path transform="translate(0,0)" fill="rgb(49,55,82)" d="M 1061.84 1174.78 L 1062.46 1172.25 C 1066.61 1171.23 1088.41 1170.94 1091.63 1173.13 L 1091.32 1174.82 C 1088.04 1173.45 1065.66 1173.48 1061.84 1174.78 z"></path>
<path transform="translate(0,0)" fill="rgb(1,73,153)" d="M 1190.11 1000.4 C 1201.35 1000.58 1211.35 1000.86 1222.58 1000.02 L 1222.88 1128.03 C 1211.91 1127.96 1200.94 1127.96 1189.97 1128.04 C 1190.61 1115.34 1190.16 1100.83 1190.22 1087.97 C 1190.35 1058.78 1190.31 1029.59 1190.11 1000.4 z"></path>
<path transform="translate(0,0)" fill="url(#Gradient3)" d="M 491.055 727.65 C 496.656 731.22 516.639 733.126 523.803 737.945 C 525.227 738.903 528.028 738.843 529.755 738.86 C 493.655 762.254 452.341 786.601 415.472 808.928 C 410.756 802.747 403.003 789.584 399.113 782.819 C 403.276 780.005 408.812 776.728 413.229 774.294 C 439.396 759.877 464.845 741.644 491.055 727.65 z"></path>
<path transform="translate(0,0)" fill="rgb(1,73,153)" d="M 579.953 725.564 C 584.371 726.415 592.253 733.098 596.168 736.064 L 517.696 825.521 C 512.886 831.097 486.504 863.541 481.795 865.046 C 477.546 863.771 468.273 859.322 463.812 857.314 L 533.58 776.762 C 548.299 759.886 564.063 741.048 579.953 725.564 z"></path>
<path transform="translate(0,0)" fill="url(#Gradient2)" d="M 309.275 959.945 C 320.46 959.986 330.843 960.025 342.029 960.651 C 341.855 980.332 342.496 1004.6 341.239 1023.8 C 331.121 1024.19 319.806 1023.86 309.598 1023.77 C 308.742 1003.32 309.239 980.57 309.275 959.945 z"></path>
<path transform="translate(0,0)" fill="url(#Gradient1)" d="M 557.223 686.4 C 562.897 693.305 568.827 704.253 573.354 712.195 C 563.435 718.47 539.672 733.934 529.755 738.86 C 528.028 738.843 525.227 738.903 523.803 737.945 C 516.639 733.126 496.656 731.22 491.055 727.65 C 512.41 713.929 536.567 700.664 557.223 686.4 z"></path>
<path transform="translate(0,0)" fill="rgb(1,73,153)" d="M 1202.8 942.301 C 1212.43 940 1222.23 945.443 1225.36 954.838 C 1226.7 958.875 1226.66 963.246 1225.24 967.257 C 1224.34 969.794 1222.92 972.112 1221.06 974.06 C 1218.25 977.011 1214.56 978.985 1210.55 979.691 C 1200.38 981.481 1190.63 974.865 1188.53 964.755 C 1186.44 954.644 1192.76 944.699 1202.8 942.301 z"></path>
</svg>